<svg width="24" height="24" viewBox="0 0 24 24" fill="none" xmlns="http://www.w3.org/2000/svg">
<g clip-path="url(#clip0_1117_3872)">
<path d="M15.2211 15.508L13.0011 20.158H13.0001C12.8501 20.448 12.4901 20.578 12.2001 20.438C12.1301 20.398 12.0701 20.358 12.0201 20.308L8.47808 16.568C8.37808 16.468 8.24808 16.398 8.11808 16.378L3.00108 15.7C2.67108 15.65 2.44108 15.35 2.48108 15.02C2.48108 14.94 2.51108 14.87 2.54108 14.81L5.00308 10.28C5.06308 10.15 5.08308 10.01 5.06308 9.87998L4.11308 4.80998C4.04308 4.47998 4.26308 4.16998 4.58308 4.10998C4.65308 4.08998 4.72308 4.08998 4.80308 4.10998L9.86308 5.04998C9.99308 5.06998 10.1331 5.04998 10.2531 4.97998L14.7731 2.51798C15.0631 2.35798 15.4231 2.46798 15.5831 2.75798C15.6131 2.81798 15.6331 2.88798 15.6431 2.95798L16.3031 8.06398C16.3131 8.19398 16.3831 8.32398 16.4831 8.41398L20.2131 11.956C20.4531 12.176 20.4631 12.556 20.2331 12.796C20.1731 12.846 20.1131 12.886 20.0531 12.916L15.4031 15.126V15.125C15.2731 15.175 15.1731 15.275 15.1131 15.405L15.2211 15.508ZM16.0111 17.428L17.4211 16L21.6611 20.24L20.2411 21.65L15.9911 17.4L16.0111 17.428Z" fill="url(#paint0_linear_1117_3872)"/>
</g>
<defs>
<linearGradient id="paint0_linear_1117_3872" x1="2.47656" y1="21.65" x2="23.4622" y2="4.67035" gradientUnits="userSpaceOnUse">
<stop stop-color="#F056B9"/>
<stop offset="1" stop-color="#FFA6DF"/>
</linearGradient>
<clipPath id="clip0_1117_3872">
<rect width="24" height="24" fill="white"/>
</clipPath>
</defs>
</svg>
